<?xml version="1.0" encoding="UTF-8" standalone="no"?><!DOCTYPE svg PUBLIC "-//W3C//DTD SVG 1.1//EN" "http://www.w3.org/Graphics/SVG/1.1/DTD/svg11.dtd"><svg width="100%" height="100%" viewBox="0 0 3209 1285" version="1.1" xmlns="http://www.w3.org/2000/svg" xmlns:xlink="http://www.w3.org/1999/xlink" xml:space="preserve" xmlns:serif="http://www.serif.com/" style="fill-rule:evenodd;clip-rule:evenodd;stroke-linejoin:round;stroke-miterlimit:2;"><g opacity="0.2"><path d="M1447.653,18.081c-10.234,-17.431 -32.666,-23.253 -50.097,-13.037l-540.128,316.2c-14.053,8.253 -20.4,24.403 -17.05,39.494l-196.788,116.553c-39.688,-85.381 -69.678,-152.169 -69.678,-162.734c0,-29.581 111.981,-160.566 111.981,-160.566l-532.431,0c-0,0 111.981,130.997 111.981,160.566c0,29.559 -234.522,498.613 -259.884,585.263c-25.363,86.641 44.375,112.431 44.375,112.431l739.462,0c0,0 69.737,-25.791 44.403,-112.431c-14.844,-50.703 -101.291,-232.316 -170.469,-380.216l200.625,-118.828c11.553,10.206 28.7,12.491 42.706,4.259l540.106,-316.191c17.45,-10.234 23.281,-32.675 13.028,-50.088l-12.147,-20.675l0.003,-0Z" style="fill-rule:nonzero;"/></g><path d="M656.619,523.578l-23.534,-40.059l223.837,-132.578l23.516,40.069l-223.819,132.569Z" style="fill:#8d4220;fill-rule:nonzero;"/><path d="M833.794,899.818c-25.372,-86.641 -259.881,-555.694 -259.881,-585.263c0,-29.581 111.981,-160.566 111.981,-160.566l-532.441,0c0,0 111.981,130.997 111.981,160.566c0,29.559 -234.522,498.613 -259.881,585.263c-25.362,86.641 44.375,112.431 44.375,112.431l739.462,0c0,0 69.747,-25.791 44.403,-112.431" style="fill:#8d4220;fill-rule:nonzero;"/><path d="M833.794,899.818c-25.372,-86.641 -259.881,-555.694 -259.881,-585.263c0,-29.581 111.981,-160.566 111.981,-160.566l-269.269,0l0,858.263l372.775,0c-0.009,0 69.737,-25.791 44.394,-112.431" style="fill:#512812;fill-rule:nonzero;"/><path d="M906.647,405.034c-17.431,10.244 -39.884,4.413 -50.137,-13.019l-12.128,-20.675c-10.234,-17.431 -4.394,-39.863 13.047,-50.106l540.128,-316.2c17.441,-10.216 39.872,-4.394 50.097,13.037l12.138,20.684c10.253,17.403 4.425,39.844 -13.028,50.087l-540.116,316.191Z" style="fill:#512812;fill-rule:nonzero;"/><g><text x="880.441px" y="1013.074px" style="font-family:'SansSerifCollection', 'Sans Serif Collection', sans-serif;font-size:1132.228px;">map</text></g></svg>